HIERARCHY
ROOT Hips
{
	OFFSET	0.00	0.00	0.00
	CHANNELS 6 Xposition Yposition Zposition Zrotation Xrotation Yrotation
	JOINT LeftUpLeg
	{
		OFFSET	 0.126116	-0.014019	-0.065224
		CHANNELS 3 Zrotation Xrotation Yrotation
		JOINT LeftLeg
		{
			OFFSET	 0.000000	 0.000000	 0.569914
			CHANNELS 3 Zrotation Xrotation Yrotation
			JOINT LeftFoot
			{
				OFFSET	 0.000000	 0.000000	 0.544423
				CHANNELS 3 Zrotation Xrotation Yrotation
				JOINT LeftToeBase
				{
					OFFSET	 0.000000	 0.000000	 0.207117
					CHANNELS 3 Zrotation Xrotation Yrotation
					End Site
					{
						OFFSET	 0.000000	 0.000000	 0.207117
					}
				}
			}
		}
	}
	JOINT RightUpLeg
	{
		OFFSET	-0.124023	-0.008373	-0.065224
		CHANNELS 3 Zrotation Xrotation Yrotation
		JOINT RightLeg
		{
			OFFSET	 0.000000	 0.000000	 0.570047
			CHANNELS 3 Zrotation Xrotation Yrotation
			JOINT RightFoot
			{
				OFFSET	 0.000000	 0.000000	 0.544354
				CHANNELS 3 Zrotation Xrotation Yrotation
				JOINT RightToeBase
				{
					OFFSET	 0.000000	 0.000000	 0.207540
					CHANNELS 3 Zrotation Xrotation Yrotation
					End Site
					{
						OFFSET	 0.000000	 0.000000	 0.207540
					}
				}
			}
		}
	}
	JOINT Spine
	{
		OFFSET	 0.000184	-0.007763	 0.117403
		CHANNELS 3 Zrotation Xrotation Yrotation
		JOINT Spine1
		{
			OFFSET	 0.000000	 0.000000	 0.137269
			CHANNELS 3 Zrotation Xrotation Yrotation
			JOINT Spine2
			{
				OFFSET	 0.000000	 0.000000	 0.156879
				CHANNELS 3 Zrotation Xrotation Yrotation
				JOINT LeftShoulder
				{
					OFFSET	 0.080501	-0.002496	 0.160144
					CHANNELS 3 Zrotation Xrotation Yrotation
					JOINT LeftArm
					{
						OFFSET	 0.000000	 0.000000	 0.164363
						CHANNELS 3 Zrotation Xrotation Yrotation
						JOINT LeftForeArm
						{
							OFFSET	 0.000000	 0.000000	 0.364576
							CHANNELS 3 Zrotation Xrotation Yrotation
							JOINT LeftHand
							{
								OFFSET	 0.000000	 0.000000	 0.360812
								CHANNELS 3 Zrotation Xrotation Yrotation
								JOINT LeftHandIndex1
								{
									OFFSET	 0.000000	 0.000000	 0.086006
									CHANNELS 3 Zrotation Xrotation Yrotation
									JOINT LeftHandIndex2
									{
										OFFSET	 0.000000	 0.000000	 0.047236
										CHANNELS 3 Zrotation Xrotation Yrotation
										JOINT LeftHandIndex3
										{
											OFFSET	-0.004284	-0.000551	 0.038166
											CHANNELS 3 Zrotation Xrotation Yrotation
											End Site
											{
												OFFSET	-0.004284	-0.000551	 0.038166
											}
										}
									}
								}
							}
						}
					}
				}
				JOINT Neck
				{
					OFFSET	 0.000000	 0.000000	 0.176489
					CHANNELS 3 Zrotation Xrotation Yrotation
					JOINT Head
					{
						OFFSET	 0.000000	-0.001747	 0.077940
						CHANNELS 3 Zrotation Xrotation Yrotation
						End Site
						{
							OFFSET	 0.000000	-0.001747	 0.077940
						}
					}
				}
				JOINT RightShoulder
				{
					OFFSET	-0.080363	 0.000306	 0.159706
					CHANNELS 3 Zrotation Xrotation Yrotation
					JOINT RightArm
					{
						OFFSET	 0.000000	 0.000000	 0.164196
						CHANNELS 3 Zrotation Xrotation Yrotation
						JOINT RightForeArm
						{
							OFFSET	 0.000000	 0.000000	 0.365611
							CHANNELS 3 Zrotation Xrotation Yrotation
							JOINT RightHand
							{
								OFFSET	 0.000000	 0.000000	 0.360648
								CHANNELS 3 Zrotation Xrotation Yrotation
								JOINT RightHandIndex1
								{
									OFFSET	 0.000000	 0.000000	 0.069977
									CHANNELS 3 Zrotation Xrotation Yrotation
									JOINT RightHandIndex2
									{
										OFFSET	 0.000000	 0.000000	 0.052305
										CHANNELS 3 Zrotation Xrotation Yrotation
										JOINT RightHandIndex3
										{
											OFFSET	 0.009002	-0.000782	 0.042196
											CHANNELS 3 Zrotation Xrotation Yrotation
											End Site
											{
												OFFSET	 0.009002	-0.000782	 0.042196
											}
										}
									}
								}
							}
						}
					}
				}
			}
		}
	}
}
MOTION
Frames:    5
Frame Time: 0.03333334
-0.221556	 6.537275	 0.018554	 5.658746	 0.643906	 3.690449	 5.059094	-3.939381	 176.469700	-11.281840	-33.692830	-5.167898	 171.932200	 86.642230	 179.384500	-2.377634	 30.148510	-0.037089	 1.780960	-12.641960	 178.908100	 3.651467	-47.595460	 5.716932	-175.243100	 82.177600	-178.808400	 2.403697	 22.132620	-0.130434	-2.475333	 0.696790	-1.872269	-3.108923	-2.087297	-0.387418	-3.302772	-4.138249	-0.337008	-91.809630	 77.630260	 179.116900	 36.860430	 69.876900	-39.940310	-7.953117	-3.988625	-19.742300	 6.321581	 2.030883	-5.333411	-3.812334	 37.924440	-2.927599	-2.450526	 36.184240	 0.754587	-1.378229	 35.397820	-2.634230	 0.562754	 6.079054	-3.217411	-0.505341	-13.429810	-1.816107	 89.765920	 79.245560	-179.651200	-36.460910	 70.292320	 39.115890	 4.201956	-7.838663	 30.835340	-12.007180	 1.013283	 9.583247	 6.437017	 35.671460	-0.771858	 2.830251	 35.756010	-7.813440	-2.350882	 35.473990	 5.254307
-0.220941	 6.532646	 0.018248	 5.825290	 0.676313	 3.694690	 5.046431	-4.031191	 176.487400	-11.207220	-33.806290	-5.148197	 171.962600	 86.517780	 179.412600	-2.377192	 30.234080	-0.038984	 1.759690	-12.687760	 178.980800	 3.667229	-47.674610	 5.731970	-175.481600	 82.034520	-178.575900	 2.403674	 22.140260	-0.130271	-2.487314	 0.727439	-1.923039	-3.135459	-2.072626	-0.387764	-3.357165	-4.122076	-0.342090	-91.809810	 77.607350	 179.133700	 36.710560	 69.870770	-39.713440	-7.996095	-4.011201	-19.992440	 6.281528	 2.034927	-5.334816	-3.812334	 37.924440	-2.927599	-2.450526	 36.184240	 0.754587	-1.378229	 35.397820	-2.634230	 0.504426	 6.047543	-3.203890	-0.563961	-13.366090	-1.823837	 89.765240	 79.267290	-179.644800	-36.376450	 70.364760	 39.095200	 4.245735	-7.806169	 30.600580	-12.038800	 1.012648	 9.582948	 6.437017	 35.671460	-0.771858	 2.830251	 35.756010	-7.813440	-2.350882	 35.473990	 5.254307
-0.219911	 6.543788	 0.017508	 6.088966	 0.775972	 3.737606	 5.011035	-4.286544	 176.530200	-11.019300	-34.151150	-5.109293	 171.963400	 86.199190	 179.558900	-2.375880	 30.479390	-0.044428	 1.854475	-12.861830	 178.970900	 3.835627	-48.081910	 5.970324	-176.039300	 81.611290	-177.902000	 2.403562	 22.206300	-0.128945	-2.491181	 0.748854	-1.989618	-3.153136	-2.068710	-0.432529	-3.411925	-4.122230	-0.347679	-91.808790	 77.606700	 179.159800	 36.588250	 69.784390	-39.602190	-8.092164	-4.040591	-20.489300	 6.162434	 2.043872	-5.337894	-3.812334	 37.924440	-2.927599	-2.450526	 36.184240	 0.754587	-1.378229	 35.397820	-2.634230	 0.468587	 5.778203	-3.450931	-0.589165	-13.099600	-1.563370	 89.764210	 79.266440	-179.623600	-36.258500	 70.471910	 39.044460	 4.259127	-7.736230	 30.097330	-12.108270	 1.009963	 9.581367	 6.437017	 35.671460	-0.771858	 2.830251	 35.756010	-7.813440	-2.350882	 35.473990	 5.254307
-0.217365	 6.546413	 0.016789	 6.128958	 0.825626	 3.712656	 5.028945	-4.524059	 176.611600	-10.850640	-34.501270	-5.045282	 172.110900	 85.906810	 179.596200	-2.374748	 30.684900	-0.049015	 1.971476	-13.310470	 179.007200	 4.186291	-49.015000	 6.432902	-176.212200	 81.265000	-177.528300	 2.402687	 22.675870	-0.119441	-2.493033	 0.887759	-1.930556	-3.214523	-2.109295	-0.479225	-3.522108	-4.177796	-0.360608	-91.804860	 77.685260	 179.194600	 36.603900	 69.633710	-39.790230	-8.163351	-4.043861	-20.809510	 6.045783	 2.052641	-5.340643	-3.812334	 37.924440	-2.927599	-2.450526	 36.184240	 0.754587	-1.378229	 35.397820	-2.634230	 0.352866	 5.539259	-3.446775	-0.703167	-12.983660	-1.669661	 89.765370	 79.183430	-179.616600	-36.360700	 70.537240	 39.366780	 4.210844	-7.721000	 29.684540	-12.248610	 1.006406	 9.579416	 6.437017	 35.671460	-0.771858	 2.830251	 35.756010	-7.813440	-2.350882	 35.473990	 5.254307
-0.213326	 6.546363	 0.015919	 5.968654	 0.845315	 3.524315	 5.264695	-4.723999	 176.884600	-10.802190	-34.832250	-4.895861	 172.733500	 85.626280	 179.278500	-2.374027	 30.815980	-0.051940	 2.217822	-14.437320	 179.266800	 4.600754	-51.066470	 7.208512	-176.237700	 81.140800	-177.322300	 2.399509	 24.089480	-0.090575	-2.506886	 1.276623	-1.650229	-3.368163	-2.165776	-0.486111	-3.746522	-4.259634	-0.386256	-91.797650	 77.837300	 179.267500	 36.697960	 69.396930	-40.257420	-8.214828	-4.030285	-20.993940	 5.938207	 2.059465	-5.342950	-3.812334	 37.924440	-2.927599	-2.450526	 36.184240	 0.754587	-1.378229	 35.397820	-2.634230	 0.088847	 5.569912	-3.150780	-0.955165	-13.196770	-2.154987	 89.769290	 79.022700	-179.644900	-36.524100	 70.602810	 39.852390	 4.215372	-7.694377	 29.284400	-12.365450	 1.003120	 9.577562	 6.437017	 35.671460	-0.771858	 2.830251	 35.756010	-7.813440	-2.350882	 35.473990	 5.254307
